<svg width="160" height="40" viewBox="0 0 160 40" fill="none" xmlns="http://www.w3.org/2000/svg">
<g id="logo/header/Desktop" clip-path="url(#clip0_80_582)">
<g id="ICON">
<path d="M22.1785 28.9826C21.4681 28.9382 20.7498 28.9169 20.02 28.9169C16.8209 28.9169 13.5422 29.3345 10.2675 30.1561C9.15518 30.4345 8.06812 30.7535 7.0063 31.113V7.95515C8.77665 7.1142 10.712 6.42405 12.7134 5.92141C15.1884 5.30086 17.6455 4.98576 20.0195 4.98576C20.763 4.98576 21.4851 5.01476 22.182 5.07662V5.15975C22.9779 5.38787 23.815 5.5773 24.6846 5.72229C25.4902 5.85762 26.3268 5.95815 27.1868 6.02001V0.937606C25.0515 0.324779 22.6231 0 20.02 0C17.4168 0 14.4294 0.347977 11.4904 1.0884C7.92836 1.98154 4.706 3.34252 2 4.99348V38.8961C4.706 37.2432 7.92836 35.8842 11.4904 34.9891C14.4313 34.2506 17.3178 33.9007 20.02 33.9007C20.7557 33.9007 21.4758 33.9259 22.1785 33.9781L22.1781 28.9807L22.1785 28.9826Z" fill="#1890FF"/>
<path d="M37.8769 5.01087C34.936 5.74936 32.0494 6.09927 29.3473 6.09927C28.6116 6.09927 27.8914 6.07414 27.1887 6.02194C26.3288 5.96008 25.4921 5.85955 24.6865 5.72423C23.815 5.5773 22.9803 5.38978 22.1844 5.16166H22.1805V39.0643C24.3158 39.6791 26.7461 40.0019 29.3493 40.0019C31.9524 40.0019 34.9398 39.6539 37.8788 38.9135C41.4389 38.0204 44.6613 36.6594 47.3692 35.0085V1.10386C44.6632 2.75675 41.4409 4.1158 37.8788 5.01087H37.8769ZM42.3607 32.0449C40.5903 32.8858 38.655 33.576 36.6517 34.0805C34.1767 34.7011 31.7192 35.0162 29.347 35.0162C28.6036 35.0162 27.8815 34.9872 27.1846 34.9253V34.8422H27.1884V11.0174C27.8989 11.0618 28.6172 11.0831 29.347 11.0831C32.5442 11.0831 35.8247 10.6655 39.0995 9.8439C40.2118 9.56552 41.2989 9.24461 42.3607 8.88696V32.0449Z" fill="#061E5C"/>
<path d="M55.0312 28.4104V10.4161H58.011V25.7929H64.3217V28.4104H55.0312Z" fill="#061E5C"/>
<path d="M66.2726 12.0632C66.2726 11.1198 67.0588 10.391 67.9789 10.391C68.899 10.391 69.658 11.1198 69.658 12.0632C69.658 13.0066 68.899 13.7354 67.9789 13.7354C67.0588 13.7354 66.2726 12.9796 66.2726 12.0632ZM66.624 28.4104V15.3806H69.3047V28.4104H66.624Z" fill="#061E5C"/>
<path d="M79.7619 28.4104V19.5351C79.7619 17.9982 79.0572 17.4317 77.8925 17.4317C76.7278 17.4317 75.699 18.3481 75.1846 19.2393V28.4104H72.5038V15.3806H75.1846V17.134C75.9164 16.0824 77.4053 15.0578 79.03 15.0578C81.3866 15.0578 82.4698 16.353 82.4698 18.6187V28.4104H79.7619Z" fill="#061E5C"/>
<path d="M85.5582 32.0255L86.6957 29.9222C87.5634 30.8927 88.701 31.3798 90.0812 31.3798C91.7331 31.3798 93.1967 30.4906 93.1967 28.1958V26.3071C92.4106 27.6294 91.1372 28.4104 89.8113 28.4104C86.8588 28.4104 85.0166 25.9552 85.0166 21.7467C85.0166 17.5381 86.8588 15.0558 89.8113 15.0558C91.1119 15.0558 92.3853 15.7305 93.1967 17.1321V15.3787H95.8775V28.192C95.8775 32.4276 93.0609 33.6958 90.217 33.6958C88.3477 33.6958 86.886 33.2647 85.5582 32.0236V32.0255ZM93.1967 19.2122C92.7367 18.2417 91.6535 17.4317 90.6227 17.4317C88.7262 17.4317 87.8061 19.2393 87.8061 21.7486C87.8061 24.2579 88.7262 26.0384 90.6227 26.0384C91.6516 26.0384 92.7347 25.2284 93.1967 24.2579V19.2122Z" fill="#061E5C"/>
<path d="M101.864 28.4104L97.502 15.3806H100.4L103.325 25.1994L106.278 15.3806H109.149L104.76 28.4104H101.862H101.864Z" fill="#061E5C"/>
<path d="M117.576 28.4104V27.034C116.79 28.1668 115.464 28.7333 114.109 28.7333C112.024 28.7333 110.101 27.1693 110.101 24.4164C110.101 21.6635 112.024 20.1537 114.109 20.1537C115.464 20.1537 116.817 20.666 117.576 21.7718V19.8289C117.576 18.2649 116.656 17.3467 115.029 17.3467C113.864 17.3467 112.781 17.8048 111.752 18.8565L110.696 16.9678C112.024 15.6184 113.812 15.052 115.518 15.052C118.253 15.052 120.286 16.3201 120.286 19.4751V28.4046H117.578L117.576 28.4104ZM117.576 25.5241V23.3937C117.062 22.4233 116.087 22.0173 115.084 22.0173C113.701 22.0173 112.808 23.0419 112.808 24.4454C112.808 25.8489 113.703 26.8735 115.084 26.8735C116.085 26.8735 117.062 26.4695 117.576 25.5241Z" fill="#061E5C"/>
<path d="M123.617 10.4161H133.531V13.0337H126.597V17.917H133.342V20.5345H126.597V28.4123H123.617V10.4161Z" fill="#1890FF"/>
<path d="M136.05 28.4104V10.4161H138.731V28.4085H136.05V28.4104Z" fill="#1890FF"/>
<path d="M141.575 12.0632C141.575 11.1198 142.361 10.391 143.281 10.391C144.202 10.391 144.961 11.1198 144.961 12.0632C144.961 13.0066 144.202 13.7354 143.281 13.7354C142.361 13.7354 141.575 12.9796 141.575 12.0632ZM141.927 28.4104V15.3806H144.607V28.4104H141.927Z" fill="#1890FF"/>
<path d="M150.486 33.3749H147.806V15.3825H150.486V17.1089C151.273 15.8136 152.544 15.0577 153.872 15.0577C156.852 15.0577 158.667 17.6753 158.667 21.882C158.667 26.0886 156.852 28.7333 153.872 28.7333C152.571 28.7333 151.298 28.0586 150.486 26.6551V33.3749ZM155.877 21.882C155.877 19.3727 154.957 17.4317 153.088 17.4317C152.032 17.4317 150.976 18.2147 150.486 19.1851V24.5807C150.946 25.5241 152.03 26.3612 153.088 26.3612C154.957 26.3612 155.877 24.4183 155.877 21.8839V21.882Z" fill="#1890FF"/>
</g>
</g>
<defs>
<clipPath id="clip0_80_582">
<rect width="160" height="40" fill="white"/>
</clipPath>
</defs>
</svg>
